<svg width="1920" height="600" viewBox="0 0 1920 600" fill="none" xmlns="http://www.w3.org/2000/svg">
  <defs>
    <linearGradient id="servicesGradient" x1="0%" y1="0%" x2="100%" y2="100%">
      <stop offset="0%" style="stop-color:#059669;stop-opacity:0.8" />
      <stop offset="50%" style="stop-color:#047857;stop-opacity:0.6" />
      <stop offset="100%" style="stop-color:#065f46;stop-opacity:0.4" />
    </linearGradient>
    <pattern id="hexagons" x="0" y="0" width="60" height="52" patternUnits="userSpaceOnUse">
      <polygon points="30,4 50,17 50,35 30,48 10,35 10,17" fill="none" stroke="white" stroke-width="1" opacity="0.1"/>
    </pattern>
  </defs>
  
  <rect width="1920" height="600" fill="url(#servicesGradient)"/>
  <rect width="1920" height="600" fill="url(#hexagons)"/>
  
  <!-- Service-related icons as subtle background elements -->
  <g opacity="0.05" fill="white">
    <rect x="200" y="100" width="60" height="60" rx="8"/>
    <circle cx="1600" cy="150" r="40"/>
    <polygon points="800,200 850,250 800,300 750,250" />
  </g>
  
  <!-- Flowing lines for connectivity theme -->
  <path d="M0 200 Q400 150 800 200 Q1200 250 1600 200 Q1760 175 1920 200" stroke="white" stroke-width="2" fill="none" opacity="0.15"/>
  <path d="M0 350 Q400 300 800 350 Q1200 400 1600 350 Q1760 325 1920 350" stroke="white" stroke-width="1" fill="none" opacity="0.1"/>
</svg>